<svg xmlns="http://www.w3.org/2000/svg" xmlns:xlink="http://www.w3.org/1999/xlink" width="500" zoomAndPan="magnify" viewBox="0 0 375 97.5" height="130" preserveAspectRatio="xMidYMid meet" version="1.0"><defs><g/><clipPath id="87d0209e1c"><path d="M 58.457031 57.097656 L 81.898438 57.097656 L 81.898438 80.539062 L 58.457031 80.539062 Z M 58.457031 57.097656 " clip-rule="nonzero"/></clipPath><clipPath id="6d39475e7d"><path d="M 41.621094 42.175781 L 50.847656 42.175781 L 50.847656 54.890625 L 41.621094 54.890625 Z M 41.621094 42.175781 " clip-rule="nonzero"/></clipPath><clipPath id="5ece4b1ab1"><path d="M 58.457031 16.460938 L 81.898438 16.460938 L 81.898438 39.898438 L 58.457031 39.898438 Z M 58.457031 16.460938 " clip-rule="nonzero"/></clipPath><clipPath id="cab5b82cdd"><path d="M 10.65625 16.6875 L 34.097656 16.6875 L 34.097656 40.125 L 10.65625 40.125 Z M 10.65625 16.6875 " clip-rule="nonzero"/></clipPath><clipPath id="629549a92a"><path d="M 10.65625 57.097656 L 34.097656 57.097656 L 34.097656 80.539062 L 10.65625 80.539062 Z M 10.65625 57.097656 " clip-rule="nonzero"/></clipPath><clipPath id="f835e49367"><path d="M 35.164062 36.953125 L 57.855469 36.953125 L 57.855469 59.644531 L 35.164062 59.644531 Z M 35.164062 36.953125 " clip-rule="nonzero"/></clipPath></defs><g clip-path="url(#87d0209e1c)"><path fill="#25625a" d="M 70.175781 80.539062 C 69.40625 80.539062 68.644531 80.464844 67.890625 80.3125 C 67.136719 80.164062 66.402344 79.941406 65.691406 79.644531 C 64.980469 79.351562 64.304688 78.992188 63.667969 78.5625 C 63.027344 78.136719 62.433594 77.648438 61.890625 77.105469 C 61.347656 76.5625 60.859375 75.96875 60.433594 75.328125 C 60.003906 74.691406 59.644531 74.015625 59.351562 73.304688 C 59.054688 72.59375 58.832031 71.859375 58.683594 71.105469 C 58.53125 70.351562 58.457031 69.589844 58.457031 68.820312 C 58.457031 68.050781 58.53125 67.285156 58.683594 66.53125 C 58.832031 65.777344 59.054688 65.042969 59.351562 64.332031 C 59.644531 63.621094 60.003906 62.945312 60.433594 62.308594 C 60.859375 61.667969 61.347656 61.074219 61.890625 60.53125 C 62.433594 59.988281 63.027344 59.5 63.667969 59.074219 C 64.304688 58.644531 64.980469 58.285156 65.691406 57.992188 C 66.402344 57.695312 67.136719 57.472656 67.890625 57.324219 C 68.644531 57.171875 69.40625 57.097656 70.175781 57.097656 C 70.945312 57.097656 71.710938 57.171875 72.464844 57.324219 C 73.21875 57.472656 73.953125 57.695312 74.664062 57.992188 C 75.375 58.285156 76.046875 58.644531 76.6875 59.074219 C 77.328125 59.5 77.921875 59.988281 78.464844 60.53125 C 79.007812 61.074219 79.496094 61.667969 79.921875 62.308594 C 80.347656 62.945312 80.710938 63.621094 81.003906 64.332031 C 81.300781 65.042969 81.523438 65.777344 81.671875 66.53125 C 81.820312 67.285156 81.898438 68.050781 81.898438 68.820312 C 81.894531 69.585938 81.820312 70.351562 81.667969 71.105469 C 81.519531 71.859375 81.296875 72.589844 81 73.300781 C 80.707031 74.011719 80.34375 74.6875 79.917969 75.328125 C 79.492188 75.964844 79.003906 76.558594 78.460938 77.101562 C 77.917969 77.644531 77.324219 78.132812 76.683594 78.558594 C 76.046875 78.988281 75.371094 79.347656 74.660156 79.644531 C 73.949219 79.9375 73.21875 80.160156 72.464844 80.3125 C 71.707031 80.460938 70.945312 80.539062 70.175781 80.539062 Z M 64.664062 77.734375 C 65.492188 78.25 66.375 78.636719 67.3125 78.90625 C 68.246094 79.171875 69.203125 79.304688 70.175781 79.304688 C 71.152344 79.304688 72.105469 79.171875 73.042969 78.90625 C 73.980469 78.636719 74.863281 78.25 75.691406 77.734375 C 75.390625 76.203125 74 70.507812 70.175781 70.507812 C 66.351562 70.507812 64.964844 76.203125 64.664062 77.734375 Z M 72.40625 69.804688 C 75.183594 71.21875 76.371094 75.109375 76.789062 76.953125 C 77.347656 76.5 77.855469 75.996094 78.308594 75.4375 C 78.761719 74.882812 79.152344 74.285156 79.484375 73.644531 C 79.816406 73.007812 80.078125 72.34375 80.273438 71.648438 C 80.46875 70.957031 80.589844 70.253906 80.640625 69.535156 C 80.6875 68.820312 80.664062 68.105469 80.566406 67.390625 C 80.46875 66.679688 80.300781 65.984375 80.058594 65.308594 C 79.820312 64.628906 79.511719 63.984375 79.136719 63.371094 C 78.765625 62.753906 78.332031 62.1875 77.84375 61.660156 C 77.351562 61.136719 76.8125 60.664062 76.226562 60.25 C 75.640625 59.835938 75.015625 59.484375 74.355469 59.199219 C 73.695312 58.910156 73.015625 58.695312 72.3125 58.550781 C 71.609375 58.402344 70.894531 58.328125 70.175781 58.328125 C 69.457031 58.328125 68.746094 58.402344 68.042969 58.550781 C 67.339844 58.695312 66.65625 58.910156 66 59.199219 C 65.339844 59.484375 64.714844 59.835938 64.128906 60.25 C 63.542969 60.664062 63.003906 61.136719 62.511719 61.660156 C 62.023438 62.1875 61.589844 62.753906 61.214844 63.371094 C 60.84375 63.984375 60.535156 64.628906 60.296875 65.308594 C 60.054688 65.984375 59.886719 66.679688 59.789062 67.390625 C 59.691406 68.105469 59.667969 68.820312 59.714844 69.535156 C 59.765625 70.253906 59.886719 70.957031 60.082031 71.648438 C 60.277344 72.34375 60.539062 73.007812 60.871094 73.644531 C 61.199219 74.285156 61.59375 74.882812 62.046875 75.4375 C 62.5 75.996094 63.007812 76.5 63.566406 76.953125 C 63.984375 75.113281 65.167969 71.21875 67.949219 69.804688 C 67.726562 69.648438 67.519531 69.46875 67.335938 69.269531 C 67.148438 69.070312 66.988281 68.851562 66.847656 68.617188 C 66.707031 68.382812 66.59375 68.136719 66.507812 67.875 C 66.417969 67.617188 66.359375 67.351562 66.328125 67.082031 C 66.296875 66.808594 66.296875 66.539062 66.320312 66.265625 C 66.347656 65.996094 66.402344 65.730469 66.484375 65.46875 C 66.566406 65.207031 66.675781 64.960938 66.8125 64.722656 C 66.945312 64.484375 67.105469 64.265625 67.285156 64.058594 C 67.46875 63.855469 67.667969 63.671875 67.890625 63.511719 C 68.109375 63.351562 68.34375 63.214844 68.59375 63.101562 C 68.84375 62.992188 69.101562 62.90625 69.367188 62.847656 C 69.632812 62.792969 69.90625 62.765625 70.175781 62.765625 C 70.449219 62.765625 70.71875 62.792969 70.988281 62.847656 C 71.253906 62.90625 71.511719 62.992188 71.761719 63.101562 C 72.011719 63.214844 72.246094 63.351562 72.464844 63.511719 C 72.6875 63.671875 72.886719 63.855469 73.070312 64.058594 C 73.25 64.265625 73.410156 64.484375 73.542969 64.722656 C 73.679688 64.960938 73.789062 65.207031 73.871094 65.46875 C 73.953125 65.730469 74.007812 65.996094 74.035156 66.265625 C 74.058594 66.539062 74.058594 66.808594 74.027344 67.082031 C 73.996094 67.351562 73.933594 67.617188 73.847656 67.875 C 73.761719 68.136719 73.648438 68.382812 73.507812 68.617188 C 73.367188 68.851562 73.207031 69.070312 73.019531 69.269531 C 72.835938 69.46875 72.628906 69.648438 72.40625 69.804688 Z M 70.175781 63.996094 C 69.828125 63.996094 69.492188 64.0625 69.167969 64.195312 C 68.84375 64.328125 68.558594 64.519531 68.3125 64.769531 C 68.0625 65.015625 67.871094 65.300781 67.738281 65.625 C 67.605469 65.949219 67.539062 66.285156 67.539062 66.636719 C 67.539062 66.984375 67.605469 67.320312 67.738281 67.644531 C 67.871094 67.96875 68.0625 68.253906 68.3125 68.5 C 68.558594 68.75 68.84375 68.941406 69.167969 69.074219 C 69.492188 69.207031 69.828125 69.273438 70.175781 69.273438 C 70.527344 69.273438 70.863281 69.207031 71.1875 69.074219 C 71.511719 68.941406 71.796875 68.75 72.042969 68.5 C 72.292969 68.253906 72.484375 67.96875 72.617188 67.644531 C 72.75 67.320312 72.816406 66.984375 72.816406 66.636719 C 72.816406 66.285156 72.75 65.949219 72.617188 65.625 C 72.480469 65.300781 72.289062 65.015625 72.042969 64.769531 C 71.796875 64.519531 71.511719 64.332031 71.1875 64.195312 C 70.863281 64.0625 70.527344 63.996094 70.175781 63.996094 Z M 70.175781 63.996094 " fill-opacity="1" fill-rule="nonzero"/></g><path stroke-linecap="butt" transform="matrix(0.000000000000000061, -0.996971, 1.091205, 0.000000000000000067, 22.466977, 57.095053)" fill="none" stroke-linejoin="miter" d="M 0.00130662 0.00162509 L 17.009857 0.00162509 " stroke="#25625a" stroke-width="1" stroke-opacity="1" stroke-miterlimit="4"/><g clip-path="url(#6d39475e7d)"><path fill="#69aaa2" d="M 46.234375 54.890625 C 46.136719 54.890625 46.054688 54.855469 45.988281 54.78125 C 45.816406 54.585938 41.75 49.980469 41.75 46.726562 C 41.75 46.425781 41.777344 46.132812 41.835938 45.835938 C 41.894531 45.542969 41.976562 45.261719 42.089844 44.984375 C 42.203125 44.707031 42.34375 44.445312 42.503906 44.199219 C 42.667969 43.949219 42.855469 43.71875 43.0625 43.507812 C 43.273438 43.296875 43.496094 43.109375 43.742188 42.941406 C 43.988281 42.777344 44.246094 42.636719 44.519531 42.523438 C 44.789062 42.40625 45.070312 42.320312 45.359375 42.261719 C 45.648438 42.203125 45.9375 42.175781 46.234375 42.175781 C 46.527344 42.175781 46.820312 42.203125 47.109375 42.261719 C 47.398438 42.320312 47.675781 42.40625 47.949219 42.523438 C 48.222656 42.636719 48.480469 42.777344 48.722656 42.941406 C 48.96875 43.109375 49.195312 43.296875 49.402344 43.507812 C 49.613281 43.71875 49.796875 43.949219 49.960938 44.199219 C 50.125 44.445312 50.261719 44.707031 50.375 44.984375 C 50.488281 45.261719 50.574219 45.542969 50.632812 45.835938 C 50.6875 46.132812 50.71875 46.425781 50.71875 46.726562 C 50.71875 49.980469 46.652344 54.585938 46.476562 54.78125 C 46.414062 54.855469 46.332031 54.890625 46.234375 54.890625 Z M 46.234375 42.84375 C 45.726562 42.84375 45.238281 42.941406 44.769531 43.140625 C 44.300781 43.335938 43.890625 43.617188 43.53125 43.980469 C 43.171875 44.347656 42.894531 44.765625 42.703125 45.242188 C 42.507812 45.714844 42.410156 46.210938 42.410156 46.726562 C 42.410156 49.289062 45.355469 52.996094 46.234375 54.046875 C 47.113281 52.996094 50.058594 49.289062 50.058594 46.726562 C 50.058594 46.210938 49.960938 45.714844 49.765625 45.242188 C 49.570312 44.765625 49.296875 44.347656 48.9375 43.980469 C 48.578125 43.617188 48.164062 43.335938 47.695312 43.140625 C 47.226562 42.941406 46.742188 42.84375 46.234375 42.84375 Z M 46.234375 48.566406 C 45.992188 48.566406 45.761719 48.519531 45.539062 48.425781 C 45.316406 48.332031 45.121094 48.199219 44.953125 48.027344 C 44.78125 47.855469 44.648438 47.65625 44.558594 47.429688 C 44.464844 47.203125 44.421875 46.96875 44.421875 46.726562 C 44.421875 46.480469 44.464844 46.246094 44.558594 46.019531 C 44.648438 45.796875 44.78125 45.597656 44.953125 45.425781 C 45.121094 45.25 45.316406 45.117188 45.539062 45.023438 C 45.761719 44.929688 45.992188 44.886719 46.234375 44.886719 C 46.472656 44.886719 46.707031 44.929688 46.925781 45.023438 C 47.148438 45.117188 47.347656 45.25 47.515625 45.425781 C 47.6875 45.597656 47.816406 45.796875 47.910156 46.019531 C 48 46.246094 48.046875 46.480469 48.046875 46.726562 C 48.046875 46.96875 48 47.203125 47.910156 47.429688 C 47.816406 47.65625 47.683594 47.855469 47.515625 48.027344 C 47.34375 48.199219 47.148438 48.332031 46.925781 48.425781 C 46.707031 48.519531 46.472656 48.566406 46.234375 48.566406 Z M 46.234375 45.554688 C 46.082031 45.554688 45.933594 45.582031 45.792969 45.644531 C 45.652344 45.703125 45.527344 45.789062 45.417969 45.898438 C 45.308594 46.007812 45.226562 46.132812 45.167969 46.277344 C 45.109375 46.421875 45.078125 46.570312 45.078125 46.726562 C 45.078125 46.882812 45.109375 47.03125 45.167969 47.171875 C 45.226562 47.316406 45.308594 47.445312 45.417969 47.554688 C 45.527344 47.664062 45.652344 47.75 45.792969 47.808594 C 45.933594 47.867188 46.082031 47.898438 46.234375 47.898438 C 46.386719 47.898438 46.535156 47.867188 46.675781 47.808594 C 46.816406 47.75 46.941406 47.664062 47.050781 47.554688 C 47.15625 47.445312 47.242188 47.316406 47.300781 47.171875 C 47.359375 47.03125 47.386719 46.882812 47.386719 46.726562 C 47.386719 46.570312 47.359375 46.421875 47.300781 46.277344 C 47.242188 46.132812 47.15625 46.007812 47.050781 45.898438 C 46.941406 45.789062 46.816406 45.703125 46.675781 45.644531 C 46.535156 45.585938 46.386719 45.554688 46.234375 45.554688 Z M 46.234375 45.554688 " fill-opacity="1" fill-rule="nonzero"/></g><path stroke-linecap="butt" transform="matrix(1.00078, 0.00000000000000233, -0.00000000000000254, 1.091205, 34.101423, 68.908989)" fill="none" stroke-linejoin="miter" d="M 0.000138893 0.00106998 L 24.418593 0.00106998 " stroke="#25625a" stroke-width="1" stroke-opacity="1" stroke-miterlimit="4"/><path stroke-linecap="butt" transform="matrix(1.000736, -0.00932586, 0.0101685, 1.091157, 34.102258, 28.496505)" fill="none" stroke-linejoin="miter" d="M -0.000691117 -0.000382876 L 24.418814 0.000689641 " stroke="#25625a" stroke-width="1" stroke-opacity="1" stroke-miterlimit="4"/><path stroke-linecap="butt" transform="matrix(0.000000000000000061, -0.998107, 1.091205, 0.000000000000000067, 70.26917, 57.096502)" fill="none" stroke-linejoin="miter" d="M -0.0011564 0.000330654 L 17.238505 0.000330654 " stroke="#25625a" stroke-width="1" stroke-opacity="1" stroke-miterlimit="4"/><path stroke-linecap="butt" transform="matrix(-0.705885, -0.705885, 0.771598, -0.771598, 37.969502, 41.40038)" fill="none" stroke-linejoin="miter" d="M 0.00190839 0.00077116 L 9.246176 -0.00176011 " stroke="#25625a" stroke-width="1" stroke-opacity="1" stroke-miterlimit="4"/><g clip-path="url(#5ece4b1ab1)"><path fill="#25625a" d="M 70.175781 39.898438 C 69.40625 39.898438 68.644531 39.824219 67.890625 39.671875 C 67.136719 39.523438 66.402344 39.300781 65.691406 39.007812 C 64.980469 38.710938 64.304688 38.351562 63.667969 37.921875 C 63.027344 37.496094 62.433594 37.011719 61.890625 36.464844 C 61.347656 35.921875 60.859375 35.332031 60.433594 34.691406 C 60.003906 34.050781 59.644531 33.375 59.351562 32.664062 C 59.054688 31.953125 58.832031 31.21875 58.683594 30.464844 C 58.53125 29.710938 58.457031 28.949219 58.457031 28.179688 C 58.457031 27.410156 58.53125 26.648438 58.683594 25.894531 C 58.832031 25.136719 59.054688 24.40625 59.351562 23.695312 C 59.644531 22.984375 60.003906 22.308594 60.433594 21.667969 C 60.859375 21.027344 61.347656 20.4375 61.890625 19.890625 C 62.433594 19.347656 63.027344 18.863281 63.667969 18.433594 C 64.304688 18.007812 64.980469 17.644531 65.691406 17.351562 C 66.402344 17.058594 67.136719 16.835938 67.890625 16.683594 C 68.644531 16.535156 69.40625 16.460938 70.175781 16.460938 C 70.945312 16.460938 71.710938 16.535156 72.464844 16.683594 C 73.21875 16.835938 73.953125 17.058594 74.664062 17.351562 C 75.375 17.644531 76.046875 18.007812 76.6875 18.433594 C 77.328125 18.863281 77.921875 19.347656 78.464844 19.890625 C 79.007812 20.4375 79.496094 21.027344 79.921875 21.667969 C 80.347656 22.308594 80.710938 22.984375 81.003906 23.695312 C 81.300781 24.40625 81.523438 25.136719 81.671875 25.894531 C 81.820312 26.648438 81.898438 27.410156 81.898438 28.179688 C 81.894531 28.949219 81.820312 29.710938 81.667969 30.464844 C 81.519531 31.21875 81.296875 31.953125 81 32.660156 C 80.707031 33.371094 80.34375 34.046875 79.917969 34.6875 C 79.492188 35.328125 79.003906 35.917969 78.460938 36.460938 C 77.917969 37.007812 77.324219 37.492188 76.683594 37.917969 C 76.046875 38.347656 75.371094 38.707031 74.660156 39.003906 C 73.949219 39.296875 73.21875 39.519531 72.464844 39.671875 C 71.707031 39.820312 70.945312 39.898438 70.175781 39.898438 Z M 64.664062 37.097656 C 65.492188 37.609375 66.375 38 67.3125 38.265625 C 68.246094 38.53125 69.203125 38.664062 70.175781 38.664062 C 71.152344 38.664062 72.105469 38.53125 73.042969 38.265625 C 73.980469 38 74.863281 37.609375 75.691406 37.097656 C 75.390625 35.5625 74 29.871094 70.175781 29.871094 C 66.351562 29.871094 64.964844 35.5625 64.664062 37.097656 Z M 72.40625 29.164062 C 75.183594 30.578125 76.371094 34.472656 76.789062 36.316406 C 77.347656 35.863281 77.855469 35.355469 78.308594 34.800781 C 78.761719 34.242188 79.152344 33.644531 79.484375 33.007812 C 79.816406 32.367188 80.078125 31.703125 80.273438 31.011719 C 80.46875 30.320312 80.589844 29.613281 80.640625 28.898438 C 80.6875 28.179688 80.664062 27.464844 80.566406 26.753906 C 80.46875 26.039062 80.300781 25.34375 80.058594 24.667969 C 79.820312 23.992188 79.511719 23.34375 79.136719 22.730469 C 78.765625 22.117188 78.332031 21.546875 77.84375 21.019531 C 77.351562 20.496094 76.8125 20.023438 76.226562 19.609375 C 75.640625 19.195312 75.015625 18.84375 74.355469 18.558594 C 73.695312 18.273438 73.015625 18.054688 72.3125 17.910156 C 71.609375 17.761719 70.894531 17.691406 70.175781 17.691406 C 69.457031 17.691406 68.746094 17.761719 68.042969 17.910156 C 67.339844 18.054688 66.65625 18.273438 66 18.558594 C 65.339844 18.84375 64.714844 19.195312 64.128906 19.609375 C 63.542969 20.023438 63.003906 20.496094 62.511719 21.019531 C 62.023438 21.546875 61.589844 22.117188 61.214844 22.730469 C 60.84375 23.34375 60.535156 23.992188 60.296875 24.667969 C 60.054688 25.34375 59.886719 26.039062 59.789062 26.753906 C 59.691406 27.464844 59.667969 28.179688 59.714844 28.898438 C 59.765625 29.613281 59.886719 30.320312 60.082031 31.011719 C 60.277344 31.703125 60.539062 32.367188 60.871094 33.007812 C 61.199219 33.644531 61.59375 34.242188 62.046875 34.800781 C 62.5 35.355469 63.007812 35.863281 63.566406 36.316406 C 63.984375 34.472656 65.167969 30.578125 67.949219 29.164062 C 67.726562 29.007812 67.519531 28.832031 67.335938 28.628906 C 67.148438 28.429688 66.988281 28.210938 66.847656 27.976562 C 66.707031 27.742188 66.59375 27.496094 66.507812 27.238281 C 66.417969 26.976562 66.359375 26.714844 66.328125 26.441406 C 66.296875 26.171875 66.296875 25.898438 66.320312 25.628906 C 66.347656 25.355469 66.402344 25.089844 66.484375 24.828125 C 66.566406 24.570312 66.675781 24.320312 66.8125 24.082031 C 66.945312 23.84375 67.105469 23.625 67.285156 23.421875 C 67.46875 23.214844 67.667969 23.035156 67.890625 22.871094 C 68.109375 22.710938 68.34375 22.574219 68.59375 22.464844 C 68.84375 22.351562 69.101562 22.265625 69.367188 22.210938 C 69.632812 22.152344 69.90625 22.125 70.175781 22.125 C 70.449219 22.125 70.71875 22.152344 70.988281 22.210938 C 71.253906 22.265625 71.511719 22.351562 71.761719 22.464844 C 72.011719 22.574219 72.246094 22.710938 72.464844 22.871094 C 72.6875 23.035156 72.886719 23.214844 73.070312 23.421875 C 73.25 23.625 73.410156 23.84375 73.542969 24.082031 C 73.679688 24.320312 73.789062 24.570312 73.871094 24.828125 C 73.953125 25.089844 74.007812 25.355469 74.035156 25.628906 C 74.058594 25.898438 74.058594 26.171875 74.027344 26.441406 C 73.996094 26.714844 73.933594 26.976562 73.847656 27.238281 C 73.761719 27.496094 73.648438 27.742188 73.507812 27.976562 C 73.367188 28.210938 73.207031 28.429688 73.019531 28.628906 C 72.835938 28.832031 72.628906 29.007812 72.40625 29.164062 Z M 70.175781 23.355469 C 69.828125 23.355469 69.492188 23.421875 69.167969 23.554688 C 68.84375 23.691406 68.558594 23.882812 68.3125 24.128906 C 68.0625 24.375 67.871094 24.660156 67.738281 24.984375 C 67.605469 25.308594 67.539062 25.644531 67.539062 25.996094 C 67.539062 26.34375 67.605469 26.683594 67.738281 27.003906 C 67.871094 27.328125 68.0625 27.613281 68.3125 27.863281 C 68.558594 28.109375 68.84375 28.300781 69.167969 28.433594 C 69.492188 28.570312 69.828125 28.636719 70.175781 28.636719 C 70.527344 28.636719 70.863281 28.570312 71.1875 28.433594 C 71.511719 28.300781 71.796875 28.109375 72.042969 27.863281 C 72.292969 27.613281 72.484375 27.328125 72.617188 27.003906 C 72.75 26.683594 72.816406 26.34375 72.816406 25.996094 C 72.816406 25.644531 72.75 25.308594 72.617188 24.984375 C 72.480469 24.664062 72.289062 24.375 72.042969 24.128906 C 71.796875 23.882812 71.511719 23.691406 71.1875 23.558594 C 70.863281 23.421875 70.527344 23.355469 70.175781 23.355469 Z M 70.175781 23.355469 " fill-opacity="1" fill-rule="nonzero"/></g><g clip-path="url(#cab5b82cdd)"><path fill="#25625a" d="M 22.375 40.125 C 21.605469 40.125 20.84375 40.050781 20.089844 39.902344 C 19.335938 39.75 18.601562 39.527344 17.890625 39.234375 C 17.179688 38.9375 16.503906 38.578125 15.867188 38.152344 C 15.226562 37.722656 14.632812 37.238281 14.089844 36.691406 C 13.546875 36.148438 13.058594 35.558594 12.632812 34.917969 C 12.203125 34.277344 11.84375 33.601562 11.550781 32.890625 C 11.253906 32.179688 11.03125 31.445312 10.882812 30.691406 C 10.730469 29.9375 10.65625 29.175781 10.65625 28.40625 C 10.65625 27.636719 10.730469 26.875 10.882812 26.121094 C 11.03125 25.363281 11.253906 24.632812 11.550781 23.921875 C 11.84375 23.210938 12.203125 22.535156 12.632812 21.894531 C 13.058594 21.253906 13.546875 20.664062 14.089844 20.117188 C 14.632812 19.574219 15.226562 19.089844 15.867188 18.660156 C 16.503906 18.234375 17.179688 17.871094 17.890625 17.578125 C 18.601562 17.285156 19.335938 17.0625 20.089844 16.910156 C 20.84375 16.761719 21.605469 16.6875 22.375 16.6875 C 23.144531 16.6875 23.910156 16.761719 24.664062 16.910156 C 25.417969 17.0625 26.152344 17.285156 26.863281 17.578125 C 27.574219 17.871094 28.246094 18.234375 28.886719 18.660156 C 29.527344 19.089844 30.121094 19.574219 30.664062 20.117188 C 31.207031 20.664062 31.695312 21.253906 32.121094 21.894531 C 32.550781 22.535156 32.910156 23.210938 33.203125 23.921875 C 33.5 24.632812 33.722656 25.363281 33.871094 26.121094 C 34.019531 26.875 34.097656 27.636719 34.097656 28.40625 C 34.09375 29.175781 34.019531 29.9375 33.867188 30.691406 C 33.71875 31.445312 33.496094 32.179688 33.199219 32.890625 C 32.90625 33.597656 32.542969 34.273438 32.117188 34.914062 C 31.691406 35.554688 31.203125 36.144531 30.660156 36.6875 C 30.117188 37.234375 29.523438 37.71875 28.882812 38.148438 C 28.246094 38.574219 27.570312 38.933594 26.859375 39.230469 C 26.148438 39.523438 25.417969 39.746094 24.664062 39.898438 C 23.90625 40.050781 23.144531 40.125 22.375 40.125 Z M 16.863281 37.324219 C 17.691406 37.835938 18.574219 38.226562 19.511719 38.492188 C 20.445312 38.757812 21.402344 38.890625 22.375 38.890625 C 23.351562 38.890625 24.304688 38.757812 25.242188 38.492188 C 26.179688 38.226562 27.0625 37.835938 27.890625 37.324219 C 27.589844 35.789062 26.199219 30.097656 22.375 30.097656 C 18.550781 30.097656 17.164062 35.789062 16.863281 37.324219 Z M 24.605469 29.394531 C 27.382812 30.804688 28.570312 34.699219 28.988281 36.542969 C 29.546875 36.089844 30.054688 35.582031 30.507812 35.027344 C 30.960938 34.46875 31.351562 33.871094 31.683594 33.234375 C 32.015625 32.59375 32.277344 31.929688 32.472656 31.238281 C 32.667969 30.546875 32.789062 29.839844 32.839844 29.125 C 32.886719 28.40625 32.863281 27.691406 32.765625 26.980469 C 32.667969 26.265625 32.5 25.574219 32.257812 24.894531 C 32.019531 24.21875 31.710938 23.570312 31.335938 22.957031 C 30.964844 22.34375 30.53125 21.773438 30.042969 21.246094 C 29.550781 20.722656 29.011719 20.253906 28.425781 19.835938 C 27.839844 19.421875 27.214844 19.074219 26.554688 18.785156 C 25.894531 18.5 25.214844 18.28125 24.511719 18.136719 C 23.808594 17.992188 23.09375 17.917969 22.375 17.917969 C 21.65625 17.917969 20.945312 17.992188 20.242188 18.136719 C 19.539062 18.28125 18.855469 18.5 18.199219 18.785156 C 17.539062 19.074219 16.914062 19.421875 16.328125 19.835938 C 15.742188 20.253906 15.203125 20.722656 14.710938 21.246094 C 14.222656 21.773438 13.789062 22.34375 13.414062 22.957031 C 13.042969 23.570312 12.734375 24.21875 12.496094 24.894531 C 12.253906 25.574219 12.085938 26.265625 11.988281 26.980469 C 11.890625 27.691406 11.867188 28.40625 11.914062 29.125 C 11.964844 29.839844 12.085938 30.546875 12.28125 31.238281 C 12.476562 31.929688 12.738281 32.59375 13.070312 33.234375 C 13.398438 33.871094 13.792969 34.46875 14.246094 35.027344 C 14.699219 35.582031 15.207031 36.089844 15.765625 36.542969 C 16.183594 34.703125 17.367188 30.804688 20.148438 29.394531 C 19.925781 29.234375 19.71875 29.058594 19.535156 28.855469 C 19.347656 28.65625 19.1875 28.4375 19.046875 28.203125 C 18.90625 27.96875 18.792969 27.722656 18.707031 27.464844 C 18.617188 27.203125 18.558594 26.941406 18.527344 26.667969 C 18.496094 26.398438 18.496094 26.125 18.519531 25.855469 C 18.546875 25.582031 18.601562 25.316406 18.683594 25.054688 C 18.765625 24.796875 18.875 24.546875 19.011719 24.308594 C 19.144531 24.070312 19.304688 23.851562 19.484375 23.648438 C 19.667969 23.445312 19.867188 23.261719 20.089844 23.101562 C 20.308594 22.9375 20.542969 22.800781 20.792969 22.691406 C 21.042969 22.578125 21.300781 22.492188 21.566406 22.4375 C 21.832031 22.378906 22.105469 22.351562 22.375 22.351562 C 22.648438 22.351562 22.917969 22.378906 23.1875 22.4375 C 23.453125 22.492188 23.710938 22.578125 23.960938 22.691406 C 24.210938 22.800781 24.445312 22.9375 24.664062 23.101562 C 24.886719 23.261719 25.085938 23.445312 25.269531 23.648438 C 25.449219 23.851562 25.609375 24.070312 25.742188 24.308594 C 25.878906 24.546875 25.988281 24.796875 26.070312 25.054688 C 26.152344 25.316406 26.207031 25.582031 26.234375 25.855469 C 26.257812 26.125 26.257812 26.398438 26.226562 26.667969 C 26.195312 26.941406 26.132812 27.203125 26.046875 27.464844 C 25.960938 27.722656 25.847656 27.96875 25.707031 28.203125 C 25.566406 28.4375 25.40625 28.65625 25.21875 28.855469 C 25.035156 29.058594 24.828125 29.234375 24.605469 29.394531 Z M 22.375 23.582031 C 22.027344 23.582031 21.691406 23.648438 21.367188 23.785156 C 21.042969 23.917969 20.757812 24.109375 20.511719 24.355469 C 20.261719 24.601562 20.070312 24.890625 19.9375 25.210938 C 19.804688 25.535156 19.738281 25.871094 19.738281 26.222656 C 19.738281 26.574219 19.804688 26.910156 19.9375 27.234375 C 20.070312 27.554688 20.261719 27.839844 20.511719 28.089844 C 20.757812 28.335938 21.042969 28.527344 21.367188 28.660156 C 21.691406 28.796875 22.027344 28.863281 22.375 28.863281 C 22.726562 28.863281 23.0625 28.796875 23.386719 28.660156 C 23.710938 28.527344 23.996094 28.335938 24.242188 28.089844 C 24.492188 27.839844 24.683594 27.554688 24.816406 27.234375 C 24.949219 26.910156 25.015625 26.574219 25.015625 26.222656 C 25.015625 25.871094 24.949219 25.535156 24.816406 25.210938 C 24.679688 24.890625 24.488281 24.605469 24.242188 24.355469 C 23.996094 24.109375 23.710938 23.917969 23.386719 23.785156 C 23.0625 23.648438 22.726562 23.582031 22.375 23.582031 Z M 22.375 23.582031 " fill-opacity="1" fill-rule="nonzero"/></g><g clip-path="url(#629549a92a)"><path fill="#25625a" d="M 22.375 80.539062 C 21.605469 80.539062 20.84375 80.464844 20.089844 80.3125 C 19.335938 80.164062 18.601562 79.941406 17.890625 79.644531 C 17.179688 79.351562 16.503906 78.992188 15.867188 78.5625 C 15.226562 78.136719 14.632812 77.648438 14.089844 77.105469 C 13.546875 76.5625 13.058594 75.96875 12.632812 75.328125 C 12.203125 74.691406 11.84375 74.015625 11.550781 73.304688 C 11.253906 72.59375 11.03125 71.859375 10.882812 71.105469 C 10.730469 70.351562 10.65625 69.589844 10.65625 68.820312 C 10.65625 68.050781 10.730469 67.285156 10.882812 66.53125 C 11.03125 65.777344 11.253906 65.042969 11.550781 64.332031 C 11.84375 63.621094 12.203125 62.945312 12.632812 62.308594 C 13.058594 61.667969 13.546875 61.074219 14.089844 60.53125 C 14.632812 59.988281 15.226562 59.5 15.867188 59.074219 C 16.503906 58.644531 17.179688 58.285156 17.890625 57.992188 C 18.601562 57.695312 19.335938 57.472656 20.089844 57.324219 C 20.84375 57.171875 21.605469 57.097656 22.375 57.097656 C 23.144531 57.097656 23.910156 57.171875 24.664062 57.324219 C 25.417969 57.472656 26.152344 57.695312 26.863281 57.992188 C 27.574219 58.285156 28.246094 58.644531 28.886719 59.074219 C 29.527344 59.5 30.121094 59.988281 30.664062 60.53125 C 31.207031 61.074219 31.695312 61.667969 32.121094 62.308594 C 32.550781 62.945312 32.910156 63.621094 33.203125 64.332031 C 33.5 65.042969 33.722656 65.777344 33.871094 66.53125 C 34.019531 67.285156 34.097656 68.050781 34.097656 68.820312 C 34.09375 69.585938 34.019531 70.351562 33.867188 71.105469 C 33.71875 71.859375 33.496094 72.589844 33.199219 73.300781 C 32.90625 74.011719 32.542969 74.6875 32.117188 75.328125 C 31.691406 75.964844 31.203125 76.558594 30.660156 77.101562 C 30.117188 77.644531 29.523438 78.132812 28.882812 78.558594 C 28.246094 78.988281 27.570312 79.347656 26.859375 79.644531 C 26.148438 79.9375 25.417969 80.160156 24.664062 80.3125 C 23.90625 80.460938 23.144531 80.539062 22.375 80.539062 Z M 16.863281 77.734375 C 17.691406 78.25 18.574219 78.636719 19.511719 78.90625 C 20.445312 79.171875 21.402344 79.304688 22.375 79.304688 C 23.351562 79.304688 24.304688 79.171875 25.242188 78.90625 C 26.179688 78.636719 27.0625 78.25 27.890625 77.734375 C 27.589844 76.203125 26.199219 70.507812 22.375 70.507812 C 18.550781 70.507812 17.164062 76.203125 16.863281 77.734375 Z M 24.605469 69.804688 C 27.382812 71.21875 28.570312 75.109375 28.988281 76.953125 C 29.546875 76.5 30.054688 75.996094 30.507812 75.4375 C 30.960938 74.882812 31.351562 74.285156 31.683594 73.644531 C 32.015625 73.007812 32.277344 72.34375 32.472656 71.648438 C 32.667969 70.957031 32.789062 70.253906 32.839844 69.535156 C 32.886719 68.820312 32.863281 68.105469 32.765625 67.390625 C 32.667969 66.679688 32.5 65.984375 32.257812 65.308594 C 32.019531 64.628906 31.710938 63.984375 31.335938 63.371094 C 30.964844 62.753906 30.53125 62.1875 30.042969 61.660156 C 29.550781 61.136719 29.011719 60.664062 28.425781 60.25 C 27.839844 59.835938 27.214844 59.484375 26.554688 59.199219 C 25.894531 58.910156 25.214844 58.695312 24.511719 58.550781 C 23.808594 58.402344 23.09375 58.328125 22.375 58.328125 C 21.65625 58.328125 20.945312 58.402344 20.242188 58.550781 C 19.539062 58.695312 18.855469 58.910156 18.199219 59.199219 C 17.539062 59.484375 16.914062 59.835938 16.328125 60.25 C 15.742188 60.664062 15.203125 61.136719 14.710938 61.660156 C 14.222656 62.1875 13.789062 62.753906 13.414062 63.371094 C 13.042969 63.984375 12.734375 64.628906 12.496094 65.308594 C 12.253906 65.984375 12.085938 66.679688 11.988281 67.390625 C 11.890625 68.105469 11.867188 68.820312 11.914062 69.535156 C 11.964844 70.253906 12.085938 70.957031 12.28125 71.648438 C 12.476562 72.34375 12.738281 73.007812 13.070312 73.644531 C 13.398438 74.285156 13.792969 74.882812 14.246094 75.4375 C 14.699219 75.996094 15.207031 76.5 15.765625 76.953125 C 16.183594 75.113281 17.367188 71.21875 20.148438 69.804688 C 19.925781 69.648438 19.71875 69.46875 19.535156 69.269531 C 19.347656 69.070312 19.1875 68.851562 19.046875 68.617188 C 18.90625 68.382812 18.792969 68.136719 18.707031 67.875 C 18.617188 67.617188 18.558594 67.351562 18.527344 67.082031 C 18.496094 66.808594 18.496094 66.539062 18.519531 66.265625 C 18.546875 65.996094 18.601562 65.730469 18.683594 65.46875 C 18.765625 65.207031 18.875 64.960938 19.011719 64.722656 C 19.144531 64.484375 19.304688 64.265625 19.484375 64.058594 C 19.667969 63.855469 19.867188 63.671875 20.089844 63.511719 C 20.308594 63.351562 20.542969 63.214844 20.792969 63.101562 C 21.042969 62.992188 21.300781 62.90625 21.566406 62.847656 C 21.832031 62.792969 22.105469 62.765625 22.375 62.765625 C 22.648438 62.765625 22.917969 62.792969 23.1875 62.847656 C 23.453125 62.90625 23.710938 62.992188 23.960938 63.101562 C 24.210938 63.214844 24.445312 63.351562 24.664062 63.511719 C 24.886719 63.671875 25.085938 63.855469 25.269531 64.058594 C 25.449219 64.265625 25.609375 64.484375 25.742188 64.722656 C 25.878906 64.960938 25.988281 65.207031 26.070312 65.46875 C 26.152344 65.730469 26.207031 65.996094 26.234375 66.265625 C 26.257812 66.539062 26.257812 66.808594 26.226562 67.082031 C 26.195312 67.351562 26.132812 67.617188 26.046875 67.875 C 25.960938 68.136719 25.847656 68.382812 25.707031 68.617188 C 25.566406 68.851562 25.40625 69.070312 25.21875 69.269531 C 25.035156 69.46875 24.828125 69.648438 24.605469 69.804688 Z M 22.375 63.996094 C 22.027344 63.996094 21.691406 64.0625 21.367188 64.195312 C 21.042969 64.328125 20.757812 64.519531 20.511719 64.769531 C 20.261719 65.015625 20.070312 65.300781 19.9375 65.625 C 19.804688 65.949219 19.738281 66.285156 19.738281 66.636719 C 19.738281 66.984375 19.804688 67.320312 19.9375 67.644531 C 20.070312 67.96875 20.261719 68.253906 20.511719 68.5 C 20.757812 68.75 21.042969 68.941406 21.367188 69.074219 C 21.691406 69.207031 22.027344 69.273438 22.375 69.273438 C 22.726562 69.273438 23.0625 69.207031 23.386719 69.074219 C 23.710938 68.941406 23.996094 68.75 24.242188 68.5 C 24.492188 68.253906 24.683594 67.96875 24.816406 67.644531 C 24.949219 67.320312 25.015625 66.984375 25.015625 66.636719 C 25.015625 66.285156 24.949219 65.949219 24.816406 65.625 C 24.679688 65.300781 24.488281 65.015625 24.242188 64.769531 C 23.996094 64.519531 23.710938 64.332031 23.386719 64.195312 C 23.0625 64.0625 22.726562 63.996094 22.375 63.996094 Z M 22.375 63.996094 " fill-opacity="1" fill-rule="nonzero"/></g><path stroke-linecap="butt" transform="matrix(0.736711, -0.689515, 0.745657, 0.796695, 55.076778, 41.196059)" fill="none" stroke-linejoin="miter" d="M 0.00148019 0.000343522 L 9.393026 -0.000847786 " stroke="#25625a" stroke-width="1" stroke-opacity="1" stroke-miterlimit="4"/><path stroke-linecap="butt" transform="matrix(-0.780152, 0.622755, -0.680759, -0.852815, 37.840893, 55.33032)" fill="none" stroke-linejoin="miter" d="M 0.00189066 -0.000625672 L 9.744629 0.00047359 " stroke="#25625a" stroke-width="1" stroke-opacity="1" stroke-miterlimit="4"/><path stroke-linecap="butt" transform="matrix(-0.779938, -0.626231, 0.683186, -0.850873, 62.23241, 61.401049)" fill="none" stroke-linejoin="miter" d="M 0.000702614 -0.00203896 L 9.72331 -0.00057214 " stroke="#25625a" stroke-width="1" stroke-opacity="1" stroke-miterlimit="4"/><g clip-path="url(#f835e49367)"><path fill="#25625a" d="M 54.53125 40.277344 C 52.386719 38.132812 49.539062 36.953125 46.507812 36.953125 C 43.476562 36.953125 40.628906 38.132812 38.484375 40.277344 C 36.34375 42.421875 35.164062 45.269531 35.164062 48.300781 C 35.164062 51.332031 36.34375 54.179688 38.484375 56.324219 C 40.628906 58.464844 43.476562 59.644531 46.507812 59.644531 C 49.539062 59.644531 52.386719 58.464844 54.53125 56.324219 C 56.675781 54.179688 57.855469 51.332031 57.855469 48.300781 C 57.855469 45.269531 56.675781 42.421875 54.53125 40.277344 Z M 46.507812 59.167969 C 40.515625 59.167969 35.640625 54.292969 35.640625 48.300781 C 35.640625 42.308594 40.515625 37.433594 46.507812 37.433594 C 52.5 37.433594 57.375 42.308594 57.375 48.300781 C 57.375 54.292969 52.5 59.167969 46.507812 59.167969 Z M 46.507812 59.167969 " fill-opacity="1" fill-rule="nonzero"/></g><path fill="#25625a" d="M 53.8125 40.996094 C 51.863281 39.042969 49.269531 37.96875 46.507812 37.96875 C 43.75 37.96875 41.15625 39.042969 39.203125 40.996094 C 37.25 42.945312 36.175781 45.539062 36.175781 48.300781 C 36.175781 51.058594 37.253906 53.652344 39.203125 55.605469 C 41.15625 57.558594 43.75 58.632812 46.507812 58.632812 C 49.269531 58.632812 51.863281 57.554688 53.8125 55.605469 C 55.765625 53.652344 56.839844 51.058594 56.839844 48.300781 C 56.839844 45.539062 55.765625 42.945312 53.8125 40.996094 Z M 46.507812 58.441406 C 40.917969 58.441406 36.367188 53.890625 36.367188 48.300781 C 36.367188 42.710938 40.917969 38.160156 46.507812 38.160156 C 52.097656 38.160156 56.648438 42.710938 56.648438 48.300781 C 56.648438 53.890625 52.097656 58.441406 46.507812 58.441406 Z M 46.507812 58.441406 " fill-opacity="1" fill-rule="nonzero"/><g fill="#69aaa2" fill-opacity="0.4"><g transform="translate(100.218554, 71.842777)"><g><path d="M 24.425781 1.203125 C 32.515625 1.203125 38.683594 -0.800781 43.566406 -4.085938 L 43.566406 -26.75 L 24.105469 -26.75 C 23.464844 -24.105469 23.546875 -18.742188 24.105469 -16.019531 L 32.117188 -16.019531 L 32.117188 -10.570312 C 30.273438 -10.171875 28.511719 -10.011719 26.347656 -10.011719 C 18.339844 -10.011719 15.296875 -14.816406 15.296875 -22.023438 C 15.296875 -26.828125 15.859375 -30.113281 16.980469 -32.835938 C 19.382812 -33.558594 21.945312 -33.957031 25.46875 -33.957031 C 30.515625 -33.957031 35.078125 -32.757812 37.960938 -31.074219 C 39.964844 -34.117188 41.484375 -37.882812 42.445312 -41.484375 C 38.363281 -43.808594 32.675781 -45.171875 26.1875 -45.171875 C 10.410156 -45.171875 2.003906 -36.679688 2.003906 -22.023438 C 2.003906 -9.050781 8.410156 1.203125 24.425781 1.203125 Z M 24.425781 1.203125 "/></g></g></g><g fill="#69aaa2" fill-opacity="0.4"><g transform="translate(147.227116, 71.842777)"><g><path d="M 31.074219 -43.726562 C 26.269531 -44.449219 18.261719 -44.449219 13.453125 -43.726562 L 0.800781 -1.203125 C 4.40625 0.242188 9.371094 1.203125 13.054688 0.882812 L 15.21875 -7.6875 L 28.511719 -7.6875 L 30.753906 0.882812 C 34.4375 1.203125 40.042969 0.242188 43.648438 -1.203125 Z M 17.78125 -17.78125 L 21.703125 -33.476562 L 25.789062 -17.78125 Z M 17.78125 -17.78125 "/></g></g></g><g fill="#69aaa2" fill-opacity="0.4"><g transform="translate(191.673033, 71.842777)"><g><path d="M 14.816406 0.320312 C 20.34375 1.121094 25.308594 0.480469 27.148438 -0.320312 L 27.148438 -33.238281 L 39.804688 -33.238281 C 40.445312 -36.199219 40.445312 -41.085938 39.804688 -43.96875 L 1.683594 -43.96875 C 1.042969 -41.085938 1.042969 -36.199219 1.683594 -33.238281 L 14.335938 -33.238281 C 14.574219 -24.90625 14.816406 -10.410156 14.816406 0.320312 Z M 14.816406 0.320312 "/></g></g></g><g fill="#69aaa2" fill-opacity="0.4"><g transform="translate(233.155884, 71.842777)"><g><path d="M 31.316406 -42.367188 L 31.796875 -26.589844 L 16.339844 -26.589844 L 16.339844 -44.289062 C 12.09375 -44.609375 7.207031 -43.96875 3.203125 -42.527344 C 3.765625 -27.070312 4.003906 -12.8125 4.003906 0.320312 C 9.53125 1.121094 14.496094 0.480469 16.339844 -0.320312 L 16.339844 -15.859375 L 31.957031 -15.859375 C 32.117188 -10.25 32.117188 -4.804688 32.117188 0.480469 C 37.640625 1.28125 42.605469 0.640625 44.449219 -0.160156 L 44.449219 -44.128906 C 40.203125 -44.449219 35.320312 -43.808594 31.316406 -42.367188 Z M 31.316406 -42.367188 "/></g></g></g><g fill="#69aaa2" fill-opacity="0.4"><g transform="translate(281.205523, 71.842777)"><g><path d="M 4.003906 0 L 36.601562 0 C 37.242188 -2.882812 37.242188 -7.769531 36.601562 -10.730469 L 16.339844 -10.730469 L 16.339844 -16.578125 L 33.476562 -16.578125 C 34.117188 -19.542969 34.117188 -24.105469 33.476562 -26.988281 L 16.339844 -26.988281 L 16.339844 -33.238281 L 35.558594 -33.238281 C 36.199219 -36.199219 36.199219 -41.085938 35.558594 -43.96875 L 16.578125 -43.96875 C 10.25 -43.96875 6.808594 -43.488281 3.203125 -42.445312 C 3.765625 -27.070312 4.003906 -12.8125 4.003906 0 Z M 4.003906 0 "/></g></g></g><g fill="#69aaa2" fill-opacity="0.4"><g transform="translate(320.36598, 71.842777)"><g><path d="M 4.003906 0.320312 C 9.53125 1.121094 14.496094 0.480469 16.339844 -0.320312 L 16.339844 -15.296875 L 18.980469 -15.296875 L 27.308594 0.480469 C 30.515625 0.800781 37.160156 0 41.003906 -1.363281 L 30.996094 -17.460938 C 35.800781 -20.023438 38.601562 -24.105469 38.601562 -29.875 C 38.601562 -39.484375 31.796875 -44.929688 20.664062 -44.929688 C 13.613281 -44.929688 7.128906 -43.96875 3.203125 -42.847656 C 3.765625 -27.070312 4.003906 -12.8125 4.003906 0.320312 Z M 16.339844 -25.308594 L 16.339844 -34.117188 C 16.339844 -34.117188 17.621094 -34.277344 19.382812 -34.277344 C 23.304688 -34.277344 25.546875 -32.835938 25.546875 -29.714844 C 25.546875 -28.191406 25.386719 -27.070312 24.90625 -26.027344 C 23.785156 -25.546875 22.183594 -25.308594 20.503906 -25.308594 Z M 16.339844 -25.308594 "/></g></g></g><g fill="#69aaa2" fill-opacity="1"><g transform="translate(97.599208, 69.223433)"><g><path d="M 24.425781 1.203125 C 32.515625 1.203125 38.683594 -0.800781 43.566406 -4.085938 L 43.566406 -26.75 L 24.105469 -26.75 C 23.464844 -24.105469 23.546875 -18.742188 24.105469 -16.019531 L 32.117188 -16.019531 L 32.117188 -10.570312 C 30.273438 -10.171875 28.511719 -10.011719 26.347656 -10.011719 C 18.339844 -10.011719 15.296875 -14.816406 15.296875 -22.023438 C 15.296875 -26.828125 15.859375 -30.113281 16.980469 -32.835938 C 19.382812 -33.558594 21.945312 -33.957031 25.46875 -33.957031 C 30.515625 -33.957031 35.078125 -32.757812 37.960938 -31.074219 C 39.964844 -34.117188 41.484375 -37.882812 42.445312 -41.484375 C 38.363281 -43.808594 32.675781 -45.171875 26.1875 -45.171875 C 10.410156 -45.171875 2.003906 -36.679688 2.003906 -22.023438 C 2.003906 -9.050781 8.410156 1.203125 24.425781 1.203125 Z M 24.425781 1.203125 "/></g></g></g><g fill="#69aaa2" fill-opacity="1"><g transform="translate(144.607771, 69.223433)"><g><path d="M 31.074219 -43.726562 C 26.269531 -44.449219 18.261719 -44.449219 13.453125 -43.726562 L 0.800781 -1.203125 C 4.40625 0.242188 9.371094 1.203125 13.054688 0.882812 L 15.21875 -7.6875 L 28.511719 -7.6875 L 30.753906 0.882812 C 34.4375 1.203125 40.042969 0.242188 43.648438 -1.203125 Z M 17.78125 -17.78125 L 21.703125 -33.476562 L 25.789062 -17.78125 Z M 17.78125 -17.78125 "/></g></g></g><g fill="#69aaa2" fill-opacity="1"><g transform="translate(189.053687, 69.223433)"><g><path d="M 14.816406 0.320312 C 20.34375 1.121094 25.308594 0.480469 27.148438 -0.320312 L 27.148438 -33.238281 L 39.804688 -33.238281 C 40.445312 -36.199219 40.445312 -41.085938 39.804688 -43.96875 L 1.683594 -43.96875 C 1.042969 -41.085938 1.042969 -36.199219 1.683594 -33.238281 L 14.335938 -33.238281 C 14.574219 -24.90625 14.816406 -10.410156 14.816406 0.320312 Z M 14.816406 0.320312 "/></g></g></g><g fill="#69aaa2" fill-opacity="1"><g transform="translate(230.536538, 69.223433)"><g><path d="M 31.316406 -42.367188 L 31.796875 -26.589844 L 16.339844 -26.589844 L 16.339844 -44.289062 C 12.09375 -44.609375 7.207031 -43.96875 3.203125 -42.527344 C 3.765625 -27.070312 4.003906 -12.8125 4.003906 0.320312 C 9.53125 1.121094 14.496094 0.480469 16.339844 -0.320312 L 16.339844 -15.859375 L 31.957031 -15.859375 C 32.117188 -10.25 32.117188 -4.804688 32.117188 0.480469 C 37.640625 1.28125 42.605469 0.640625 44.449219 -0.160156 L 44.449219 -44.128906 C 40.203125 -44.449219 35.320312 -43.808594 31.316406 -42.367188 Z M 31.316406 -42.367188 "/></g></g></g><g fill="#69aaa2" fill-opacity="1"><g transform="translate(278.586177, 69.223433)"><g><path d="M 4.003906 0 L 36.601562 0 C 37.242188 -2.882812 37.242188 -7.769531 36.601562 -10.730469 L 16.339844 -10.730469 L 16.339844 -16.578125 L 33.476562 -16.578125 C 34.117188 -19.542969 34.117188 -24.105469 33.476562 -26.988281 L 16.339844 -26.988281 L 16.339844 -33.238281 L 35.558594 -33.238281 C 36.199219 -36.199219 36.199219 -41.085938 35.558594 -43.96875 L 16.578125 -43.96875 C 10.25 -43.96875 6.808594 -43.488281 3.203125 -42.445312 C 3.765625 -27.070312 4.003906 -12.8125 4.003906 0 Z M 4.003906 0 "/></g></g></g><g fill="#69aaa2" fill-opacity="1"><g transform="translate(317.746634, 69.223433)"><g><path d="M 4.003906 0.320312 C 9.53125 1.121094 14.496094 0.480469 16.339844 -0.320312 L 16.339844 -15.296875 L 18.980469 -15.296875 L 27.308594 0.480469 C 30.515625 0.800781 37.160156 0 41.003906 -1.363281 L 30.996094 -17.460938 C 35.800781 -20.023438 38.601562 -24.105469 38.601562 -29.875 C 38.601562 -39.484375 31.796875 -44.929688 20.664062 -44.929688 C 13.613281 -44.929688 7.128906 -43.96875 3.203125 -42.847656 C 3.765625 -27.070312 4.003906 -12.8125 4.003906 0.320312 Z M 16.339844 -25.308594 L 16.339844 -34.117188 C 16.339844 -34.117188 17.621094 -34.277344 19.382812 -34.277344 C 23.304688 -34.277344 25.546875 -32.835938 25.546875 -29.714844 C 25.546875 -28.191406 25.386719 -27.070312 24.90625 -26.027344 C 23.785156 -25.546875 22.183594 -25.308594 20.503906 -25.308594 Z M 16.339844 -25.308594 "/></g></g></g></svg>